<svg viewBox="0 0 100 75" xmlns="http://www.w3.org/2000/svg">
  <path d="M95,35c-5-8-15-12-25-12c-5,0-10,1-15,3c-5-5-12-8-20-9c-2-0.2-4-0.2-6-0.1c-10,0.5-18,5-22,12 c-2,4-2,10,0,14c4,8,12,13,22,14c2,0.1,4,0.1,6-0.1c8-1,15-5,20-11c5,1,10,2,15,2c8,0,16-3,22-8c2-1,2-3,0-4 C96,36,95.5,35.5,95,35z M30,40c-3,0-6-3-6-6s3-6,6-6s6,3,6,6S33,40,30,40z M55,35c-2,4-6,6-10,7c-1,0.2-3,0.2-4,0.2 c-1,0-3,0-4-0.2c-4-1-8-3-10-7c2-4,4-6,6-7c1-0.2,3-0.2,4-0.2c1,0,3,0,4,0.2C49,29,53,31,55,35z" fill="#10b981"/>
  <path d="M70,30c2-6,6-10,12-12c-4,2-6,6-8,10C73,29,71,30,70,30z" fill="#10b981"/>
  <path d="M70,40c2,6,6,10,12,12c-4-2-6-6-8-10C73,41,71,40,70,40z" fill="#10b981"/>
</svg>
